# xmcd
#
# Track frame offsets: 
#        150
#        18024
#        29788
#        51515
#        61638
#        80640
#        109121
#        119143
#        138116
#        155953
#        176406
#        190774
#        202953
#
# Disc length: 3127 seconds
#
# Revision: 0
# Processed by: cddbd v1.5.2PL0 Copyright (c) Steve Scherf et al.
# Submitted via: ExactAudioCopy v1.0b3
#
DISCID=b40c350d
DTITLE=Gustavo Sanchez Haase - Antologia (Blues, Jazz, Rock)
DYEAR=2016
DGENRE=Blues
TTITLE0=All Of Me
TTITLE1=Jimmy Page Acoustic Style
TTITLE2=Gustavo's Blues
TTITLE3=Song For George
TTITLE4=Fleur D'ennui
TTITLE5=Sleepwalk
TTITLE6=Slide Reporter
TTITLE7=Trouble In Mind
TTITLE8=Light My Fire
TTITLE9=Autumn Lives
TTITLE10=Relax
TTITLE11=Walking My Baby Back Home
TTITLE12=Dia Desolado
EXTD=
EXTT0=
EXTT1=
EXTT2=
EXTT3=
EXTT4=
EXTT5=
EXTT6=
EXTT7=
EXTT8=
EXTT9=
EXTT10=
EXTT11=
EXTT12=
PLAYORDER=
